<svg class="hidden">
  <symbol fill="none" xmlns="http://www.w3.org/2000/svg" viewBox="0 0 52 52" id="arrow-icon">
    <path d="M26 52C40.3 52 52 40.3 52 26C52 11.7 40.3 0 26 0C11.7 0 0 11.7 0 26C0 40.3 11.7 52 26 52ZM26 2C39.2 2 50 12.8 50 26C50 39.2 39.2 50 26 50C12.8 50 2 39.2 2 26C2 12.8 12.8 2 26 2Z" fill="black"></path>
    <path d="M26.0998 33.2L27.4998 34.6L36.0998 26L27.4998 17.4L26.0998 18.8L32.2998 25H17.2998V27H32.2998L26.0998 33.2Z" fill="black"></path>
  </symbol>
  <symbol fill="none" xmlns="http://www.w3.org/2000/svg" viewBox="0 0 49 52" id="black-star">
    <path d="M32.4849 2.47914L30.5218 14.743L38.9105 23.902C39.1211 24.1325 39.19 24.4611 39.0854 24.7566C39.0241 24.9281 38.912 25.0729 38.7666 25.1735C38.663 25.2452 38.5431 25.2933 38.4154 25.3145L26.1452 27.2369L20.0262 38.0447C19.8734 38.3171 19.5814 38.4816 19.268 38.4755C18.9565 38.4681 18.6726 38.291 18.5298 38.0108L12.9104 26.9348L0.740558 24.4546C0.434179 24.3925 0.186232 24.1664 0.0963657 23.8657C0.00775976 23.5669 0.0891166 23.2418 0.310267 23.0215L9.10744 14.2544L7.70626 1.91384C7.67021 1.6055 7.80831 1.30024 8.06633 1.12162C8.32435 0.943004 8.65869 0.921208 8.93459 1.06351L19.9918 6.71954L31.2947 1.57206C31.5787 1.44263 31.9117 1.48094 32.1602 1.66906C32.4094 1.8621 32.5346 2.17054 32.4849 2.47914ZM21.7771 41.0391C21.2629 41.3951 21.1348 42.0993 21.4908 42.6135L27.189 50.8448C27.545 51.359 28.2492 51.487 28.7634 51.1311C29.2776 50.7751 29.4057 50.0709 29.0497 49.5567L23.3515 41.3254C22.9955 40.8112 22.2913 40.6832 21.7771 41.0391ZM29.3139 31.8141C28.7996 32.1701 28.6716 32.8742 29.0276 33.3885L34.7258 41.6197C35.0818 42.134 35.7859 42.262 36.3001 41.906C36.8144 41.55 36.9424 40.8459 36.5864 40.3316L30.8883 32.1004C30.5323 31.5861 29.8281 31.4581 29.3139 31.8141ZM40.6643 27.5772C40.15 27.9332 40.022 28.6373 40.378 29.1515L46.0775 37.3846C46.4335 37.8989 47.1376 38.0269 47.6519 37.6709C48.1661 37.3149 48.2941 36.6108 47.9382 36.0966L42.2387 27.8635C41.8839 27.351 41.1785 27.2212 40.6643 27.5772Z" fill="black"></path>
  </symbol>
  <symbol fill="none" xmlns="http://www.w3.org/2000/svg" viewBox="0 0 21 21" id="copyright-icon">
    <path d="M10.14 0C4.53988 0 0 4.53988 0 10.14C0 15.7403 4.53988 20.28 10.14 20.28C15.7401 20.28 20.28 15.7403 20.28 10.14C20.28 4.53988 15.7401 0 10.14 0ZM15.6618 15.662C14.1869 17.1366 12.2258 17.949 10.14 17.949C8.0542 17.949 6.09313 17.1366 4.61816 15.662C3.1434 14.1869 2.33098 12.2258 2.33098 10.14C2.33098 5.83415 5.83395 2.33119 10.14 2.33119C14.4461 2.33119 17.949 5.83415 17.949 10.14C17.949 12.2258 17.1368 14.1869 15.6618 15.662Z" fill="black"></path>
    <path d="M10.1477 13.3745C8.36248 13.3745 6.91002 11.922 6.91002 10.1368C6.91002 8.35155 8.36248 6.8993 10.1477 6.8993C11.4485 6.8993 12.5718 7.67096 13.0861 8.77987H15.5491C14.9431 6.36026 12.7551 4.56812 10.1477 4.56812C7.07226 4.56812 4.57904 7.06134 4.57904 10.1368C4.57904 13.2125 7.07226 15.7055 10.1477 15.7055C12.7592 15.7055 14.9498 13.9077 15.5517 11.4824H13.0916C12.5795 12.5978 11.4531 13.3745 10.1477 13.3745Z" fill="black"></path>
  </symbol>
  <symbol fill="none" xmlns="http://www.w3.org/2000/svg" viewBox="0 0 186 188" id="elips">
    <path d="M171 -23.3386C171 84.0844 79.6471 172.323 -34.5 172.323C-148.647 172.323 -240 84.0844 -240 -23.3386C-240 -130.762 -148.647 -219 -34.5 -219C79.6471 -219 171 -130.762 171 -23.3386Z" stroke="black" stroke-opacity="0.1" stroke-width="30"></path>
    <path d="M124 -43C124 48.5937 46.0786 124 -51.5 124C-149.079 124 -227 48.5937 -227 -43C-227 -134.594 -149.079 -210 -51.5 -210C46.0786 -210 124 -134.594 124 -43Z" stroke="black" stroke-opacity="0.1" stroke-width="30"></path>
    <path d="M77 -64.6614C77 11.103 12.51 73.6772 -68.5 73.6772C-149.51 73.6772 -214 11.103 -214 -64.6614C-214 -140.426 -149.51 -203 -68.5 -203C12.51 -203 77 -140.426 77 -64.6614Z" stroke="black" stroke-opacity="0.1" stroke-width="30"></path>
  </symbol>
  <symbol fill="none" xmlns="http://www.w3.org/2000/svg" viewBox="0 0 21 21" id="email-icon">
    <path d="M10.1397 4.79349C10.7745 4.79349 11.3517 5.05241 11.7723 5.47215C12.1921 5.89364 12.451 6.46992 12.451 7.11161C12.4536 7.21655 12.4948 7.30772 12.5594 7.37224C12.6299 7.44019 12.7254 7.4832 12.8303 7.4832C12.9361 7.4832 13.0316 7.44105 13.1004 7.37396C13.1675 7.30429 13.2097 7.20881 13.2097 7.10472C13.2097 6.25746 12.8656 5.48935 12.3108 4.93454C11.756 4.37888 10.9879 4.03568 10.1406 4.03568C9.29335 4.03568 8.52525 4.37888 7.96957 4.93454C7.41392 5.48933 7.07071 6.25746 7.07071 7.10558C7.07071 7.9537 7.41392 8.72095 7.96957 9.27662C8.52437 9.83227 9.29249 10.1755 10.1406 10.1755C10.421 10.1755 10.692 10.1376 10.9483 10.068C11.2184 9.99485 11.4713 9.88733 11.6984 9.754C12.0132 9.56992 12.4183 9.67486 12.6024 9.98968C12.7865 10.3045 12.6815 10.7088 12.3667 10.8937C12.0304 11.0915 11.67 11.2455 11.2958 11.3479C10.9277 11.4476 10.5397 11.5018 10.1406 11.5018C8.92694 11.5018 7.82763 11.0098 7.03205 10.215C6.23725 9.41938 5.74524 8.32096 5.74524 7.10647C5.74524 5.89279 6.23725 4.79349 7.03205 3.9979C7.82769 3.20311 8.92612 2.7111 10.1406 2.7111C11.3543 2.7111 12.4536 3.20311 13.2483 3.99876C14.0431 4.79441 14.536 5.89283 14.536 7.10645C14.536 7.57695 14.3441 8.00359 14.0362 8.31154C13.7248 8.61946 13.2991 8.81042 12.8303 8.81042C12.5025 8.81042 12.1963 8.71752 11.9366 8.55754C11.8858 8.62034 11.8316 8.68054 11.774 8.73818C11.356 9.1588 10.7779 9.41769 10.1397 9.41769C9.50404 9.41769 8.92687 9.15878 8.5071 8.73903C8.08736 8.31755 7.82845 7.74126 7.82845 7.10645C7.82845 6.46822 8.08736 5.89019 8.50539 5.47215L8.54839 5.43258C8.96299 5.03776 9.52382 4.79521 10.1397 4.79521L10.1397 4.79349ZM0.32277 8.94383L2.66746 7.25619V0.663177C2.66746 0.297601 2.96423 0 3.33064 0H16.9487C17.3143 0 17.6119 0.296764 17.6119 0.663177V7.25619L19.9566 8.94469C20.1501 9.06081 20.28 9.27241 20.28 9.5141V18.0477C20.28 19.6253 18.9898 20.9198 17.4079 20.9198H2.87295C1.29026 20.9198 0 19.6304 0 18.0477V9.5141C0 9.27239 0.129883 9.0608 0.32343 8.94469L0.32277 8.94383ZM17.3762 11.9397C17.3495 11.9629 17.3211 11.9835 17.291 12.0016L14.5531 13.9731L18.9046 18.4339C18.9365 18.31 18.9537 18.181 18.9537 18.0477V10.8051L17.3761 11.9405L17.3762 11.9397ZM16.2855 11.0976V1.3253H3.99304V11.0976L7.09126 13.3289C7.11104 13.3418 7.12997 13.3555 7.14803 13.3693L10.1397 15.5231L13.1313 13.3693C13.1494 13.3547 13.1692 13.3409 13.1881 13.3289L16.2855 11.0976ZM2.98651 11.9999C2.95726 11.9818 2.92974 11.962 2.90393 11.9397L1.3264 10.8034V18.046C1.3264 18.1793 1.3436 18.3092 1.37543 18.4322L5.72703 13.9723L2.98751 11.9991L2.98651 11.9999ZM13.4685 14.7541L10.5372 16.865C10.3118 17.0344 9.99442 17.0465 9.75443 16.8736L6.81101 14.7541L2.22821 19.4523C2.42518 19.5435 2.64366 19.5934 2.87333 19.5934H17.4083C17.638 19.5934 17.8565 19.5426 18.0534 19.4523L13.4697 14.7533L13.4685 14.7541ZM10.8364 6.40459C10.6601 6.22826 10.4132 6.11815 10.1397 6.11815C9.87992 6.11815 9.64424 6.21793 9.46876 6.37964L9.44296 6.4063C9.26491 6.58436 9.15394 6.83122 9.15394 7.10304C9.15394 7.37657 9.26405 7.62344 9.44124 7.80149C9.61929 7.97954 9.8653 8.08879 10.1397 8.08879C10.4115 8.08879 10.6584 7.97869 10.8364 7.79978C11.0145 7.62344 11.1246 7.37571 11.1246 7.10304C11.1246 6.82951 11.0145 6.58264 10.8356 6.40373L10.8364 6.40459Z" fill="black"></path>
  </symbol>
  <symbol fill="none" xmlns="http://www.w3.org/2000/svg" viewBox="0 0 30 30" id="instagram">
    <path d="M23 0H7.00002C5.14376 0.00249983 3.36514 0.739998 2.05251 2.05251C0.739998 3.36502 0.00252799 5.14376 0 7.00002V23C0.00249983 24.8562 0.739998 26.6349 2.05251 27.9475C3.36502 29.26 5.14376 29.9975 7.00002 30H23C24.8562 29.9975 26.6349 29.26 27.9475 27.9475C29.26 26.635 29.9975 24.8562 30 23V7.00002C29.9975 5.14376 29.26 3.36514 27.9475 2.05251C26.635 0.739998 24.8562 0.00252799 23 0ZM28 23C27.9987 24.3249 27.4712 25.5962 26.5337 26.5337C25.5962 27.4712 24.325 27.9987 23 27.9999H7.00002C5.67503 27.9987 4.40377 27.4712 3.46626 26.5337C2.52876 25.5962 2.00128 24.325 2.00003 23V6.99999C2.00128 5.675 2.52876 4.40373 3.46626 3.46623C4.40377 2.52873 5.675 2.00124 7.00002 2H23C24.325 2.00125 25.5962 2.52873 26.5337 3.46623C27.4712 4.40373 27.9987 5.67496 28 6.99999V23ZM15 7.99998C13.1437 7.99998 11.3626 8.73749 10.0499 10.05C8.73729 11.3624 7.99995 13.1437 7.99995 15C7.99995 16.8563 8.73745 18.6375 10.0499 19.9501C11.3624 21.2627 13.1437 22.0001 15 22.0001C16.8563 22.0001 18.6374 21.2626 19.9501 19.9501C21.2627 18.6376 22 16.8563 22 15C21.9975 13.1438 21.2601 11.3652 19.9475 10.0525C18.635 8.74001 16.8563 8.00251 15 7.99998ZM15 20C13.6738 20 12.4025 19.4737 11.465 18.535C10.5262 17.5975 9.99998 16.3262 9.99998 14.9999C9.99998 13.6736 10.5262 12.4024 11.465 11.4649C12.4025 10.5262 13.6737 9.99992 15 9.99992C16.3263 9.99992 17.5975 10.5262 18.535 11.4649C19.4738 12.4024 20 13.6736 20 14.9999C19.9988 16.3249 19.4713 17.5962 18.5338 18.5337C17.5963 19.4712 16.325 19.9987 15 20ZM25.2499 6.49983C25.2499 7.20731 24.8237 7.84606 24.1699 8.11608C23.5161 8.38733 22.7624 8.23733 22.2624 7.73733C21.7624 7.23733 21.6124 6.48357 21.8837 5.82984C22.1537 5.17609 22.7924 4.74985 23.4999 4.74985C24.4662 4.74985 25.2499 5.53356 25.2499 6.49983Z" fill="black"></path>
  </symbol>
  <symbol fill="none" xmlns="http://www.w3.org/2000/svg" viewBox="0 0 133 133" id="instrument">
    <path d="M101.977 22.493L88.4532 4.387C87.7359 3.42652 86.3288 3.33386 85.4916 4.19071L78.3663 11.4836C77.7024 12.1635 77.6238 13.2224 78.1804 13.9925L86.0559 24.8899L77.3486 41.5011L74.5627 40.0433C73.6072 39.5436 72.4277 39.9125 71.9273 40.8671L67.4088 49.4872L59.9995 54.8279C58.7968 55.6947 57.7974 56.8469 57.1094 58.1597C57.0908 58.1949 34.2702 101.731 34.2829 101.707C29.8613 110.148 33.1146 120.552 41.5563 124.969C49.9984 129.387 60.4317 126.092 64.8354 117.691C64.8357 117.691 64.8359 117.69 64.8362 117.69C66.1424 115.198 86.287 76.7673 87.6598 74.1483C88.3479 72.8353 88.7266 71.3581 88.7548 69.8765L88.929 60.7505L93.4471 52.1309C93.9482 51.1752 93.5783 49.9941 92.6228 49.4939L89.8392 48.0374L102.141 24.5685C102.491 23.9026 102.427 23.0953 101.977 22.493ZM43.3676 121.508C37.4239 118.398 34.8105 111.454 36.9662 105.311L60.3411 117.542C56.5142 122.798 49.2941 124.609 43.3676 121.508ZM84.8497 69.802C84.8332 70.6805 84.6085 71.5563 84.2006 72.335L62.2825 114.149L38.6525 101.785L60.5694 59.973L60.5696 59.973C60.9775 59.1943 61.5703 58.5109 62.2838 57.9966L69.0884 53.092L85.0096 61.4229L84.8497 69.802ZM86.1617 57.6172L71.5622 49.9779L74.4812 44.4093C79.2169 46.8871 84.493 49.6481 89.0807 52.0486L86.1617 57.6172ZM86.3788 46.2263L80.8096 43.3122L90.0768 25.6327C90.4208 24.9765 90.364 24.1824 89.93 23.5819L82.3094 13.0373L86.6899 8.55345L98.1109 23.8444L86.3788 46.2263Z" fill="black" fill-opacity="0.2"></path>
    <path d="M73.0857 62.2795C70.2171 60.779 66.6612 61.8903 65.1583 64.7576L59.3353 75.8662C57.8265 78.7439 58.9366 82.2931 61.8149 83.7993L63.895 84.8878C66.7693 86.3918 70.3225 85.2711 71.8224 82.4098L77.6454 71.3011C79.1542 68.4234 78.0441 64.8742 75.1658 63.368L73.0857 62.2795ZM74.1859 69.4875L68.3628 80.5964C67.8586 81.5575 66.6669 81.9296 65.7058 81.4269L63.6258 80.3384C62.6609 79.8333 62.2893 78.6442 62.7947 77.6796L68.6177 66.5708C69.1211 65.6101 70.3137 65.2375 71.2746 65.7403L73.3547 66.8288C74.3195 67.3339 74.6913 68.5227 74.1859 69.4875Z" fill="black" fill-opacity="0.2"></path>
    <path d="M50.4152 92.8849C48.6059 96.3366 49.9362 100.592 53.3886 102.399C56.8395 104.204 61.1046 102.858 62.9051 99.4236C64.7144 95.9719 63.3845 91.7162 59.9319 89.9096C56.4888 88.1079 52.2196 89.443 50.4152 92.8849ZM59.4455 97.6098C59.4454 97.6101 59.4456 97.61 59.4455 97.6098C58.6406 99.146 56.7361 99.7418 55.1997 98.9378C53.6604 98.1323 53.0688 96.2362 53.8748 94.6982C54.6805 93.1624 56.5846 92.5666 58.121 93.3705C59.6599 94.1757 60.2517 96.0722 59.4455 97.6098Z" fill="black" fill-opacity="0.2"></path>
  </symbol>
  <symbol fill="none" xmlns="http://www.w3.org/2000/svg" viewBox="0 0 74 96" id="pasta">
    <path d="M68.9255 31.1363C69.0739 30.8704 69.1579 30.5501 69.1655 30.262L69.4573 19.5483L73.8431 9.24659C74.2068 8.39197 73.8995 7.39964 73.1164 6.90033L63.5044 0.771196C62.7213 0.271876 61.6919 0.411848 61.0706 1.10221L53.5807 9.42457L43.9903 14.2088C43.7322 14.3372 43.4772 14.5487 43.2988 14.7953C7.23778 64.6333 5.36271 67.2152 5.30029 67.3131L1.2142 73.7211C0.650018 74.6059 0.909903 75.7805 1.79469 76.3446L30.6309 94.732C31.5157 95.2962 32.6902 95.0363 33.2544 94.1515C34.2385 92.6072 37.2809 87.8412 37.3691 87.6934C37.449 87.5589 66.7364 35.0598 68.9255 31.1363ZM45.3271 18.4744L64.7342 30.8494L61.629 36.4153L26.7625 44.1299L45.3271 18.4744ZM13.3491 62.6664L51.72 54.1762L35.0609 84.0365L9.62292 67.816L13.3491 62.6664ZM54.6372 13.1441L65.6392 20.1596L65.4583 26.8043L48.6891 16.1114L54.6372 13.1441ZM31.0719 90.5065L5.43975 74.1621L7.48279 70.9581L33.115 87.3025L31.0719 90.5065Z" fill="black" fill-opacity="0.2"></path>
  </symbol>
  <symbol fill="none" xmlns="http://www.w3.org/2000/svg" viewBox="0 0 21 22" id="phone-icon">
    <path d="M9.48174 21.3909C8.91081 21.3909 8.35913 21.181 7.93261 20.8007C5.52471 18.6556 3.57697 16.0445 2.20782 13.1243C0.840666 10.2014 0.0896918 7.02908 0.00113457 3.80375C-0.0277494 2.87852 0.496961 2.02452 1.33556 1.63172L3.93115 0.420535C5.08744 -0.118621 6.46241 0.38106 7.00243 1.53735L8.30313 4.3274C8.56309 4.88293 8.59197 5.51835 8.38304 6.09507C8.17412 6.67081 7.74473 7.14066 7.18919 7.40061L5.57172 8.15351C5.77582 10.262 6.69816 12.2356 8.18481 13.7455L9.79264 12.9849L9.79168 12.9839C10.3472 12.7249 10.9826 12.697 11.5593 12.9059C12.1351 13.1158 12.604 13.5452 12.8639 14.1007L14.1666 16.8928H14.1656C14.44 17.4695 14.4496 18.1357 14.1926 18.7201C13.9056 19.3353 13.4031 19.8235 12.7792 20.0902L10.4522 21.1762C10.1479 21.3177 9.81679 21.3909 9.48174 21.3909ZM4.90575 1.74534C4.7931 1.74438 4.68238 1.76941 4.58033 1.81659L1.98572 3.02778C1.70556 3.1616 1.53032 3.4485 1.54188 3.7595C1.62371 6.77385 2.32558 9.74038 3.60415 12.4728C4.88369 15.2022 6.70427 17.6437 8.9553 19.6493C9.18636 19.8582 9.5195 19.9102 9.80254 19.7802L12.1296 18.6932V18.6942C12.4107 18.5815 12.6427 18.3726 12.7833 18.104C12.8622 17.9249 12.8584 17.7208 12.7727 17.5446L11.4691 14.7526H11.4701C11.29 14.3675 10.8317 14.2009 10.4457 14.381L8.8282 15.1339V15.1329C8.24091 15.4083 7.5429 15.285 7.08461 14.8248C5.34583 13.0581 4.26843 10.7465 4.03453 8.27805C3.97965 7.63491 4.33298 7.02644 4.91931 6.75589L6.53678 6.00203V6.00107C6.72163 5.91538 6.86508 5.75845 6.93441 5.56686C7.0047 5.37527 6.99507 5.16346 6.90938 4.97765L5.60481 2.18956C5.47772 1.91805 5.20525 1.74475 4.90584 1.74571L4.90575 1.74534ZM16.8327 12.6699C17.4537 10.7242 17.2776 8.61179 16.3427 6.79703C15.4088 4.98122 13.7922 3.61015 11.8475 2.98534C11.4547 2.88714 11.0523 3.11147 10.929 3.49657C10.8048 3.88265 11.0012 4.29857 11.3777 4.44877C12.9335 4.94844 14.2267 6.04603 14.9737 7.49787C15.7218 8.95069 15.8624 10.6404 15.3656 12.1971C15.2356 12.6015 15.4589 13.0347 15.8643 13.1647C15.9384 13.1888 16.0164 13.2013 16.0953 13.2022C16.4304 13.2042 16.7288 12.9886 16.8327 12.6699ZM13.8983 11.7303C14.2718 10.5634 14.1669 9.29541 13.6065 8.20549C13.0452 7.11561 12.0748 6.29341 10.9079 5.91986C10.7096 5.84091 10.4872 5.84765 10.2946 5.93911C10.1021 6.02961 9.95572 6.19714 9.89026 6.40029C9.82479 6.60343 9.84694 6.82392 9.95092 7.0107C10.0549 7.19651 10.2311 7.33131 10.4381 7.38329C11.216 7.63264 11.863 8.18048 12.2375 8.90737C12.6111 9.6333 12.6814 10.4786 12.432 11.2575C12.302 11.6619 12.5254 12.0951 12.9298 12.2251C13.3351 12.3551 13.7683 12.1317 13.8983 11.7274L13.8983 11.7303ZM19.7665 13.6106C20.6388 10.8868 20.3923 7.92917 19.0839 5.38755C17.7755 2.84495 15.5101 0.926911 12.7873 0.0546482C12.5899 -0.0242991 12.3675 -0.0175605 12.175 0.0739041C11.9824 0.164406 11.8351 0.331935 11.7706 0.535077C11.7051 0.738224 11.7273 0.958712 11.8312 1.14549C11.9343 1.33131 12.1104 1.4661 12.3175 1.51808C14.6522 2.26617 16.5942 3.91058 17.7157 6.09037C18.8371 8.27017 19.0472 10.8061 18.2991 13.1407C18.1701 13.5451 18.3925 13.9783 18.7978 14.1083C18.872 14.1324 18.95 14.1449 19.0289 14.1458C19.3649 14.1478 19.6644 13.9302 19.7665 13.6106Z" fill="black"></path>
  </symbol>
  <symbol fill="none" xmlns="http://www.w3.org/2000/svg" viewBox="0 0 79 91" id="tooth-logo">
    <path d="M77.4071 13.7592C75.5071 7.45923 70.2071 3.85923 64.2071 1.85923C56.5071 -0.740766 48.4071 0.359234 40.8071 2.65923C40.5071 2.75923 40.2071 2.85923 40.0071 2.95923C32.5071 -0.040766 24.3071 -1.24077 16.7071 1.65923C6.50712 5.55923 -0.99288 16.3592 0.10712 27.3592C0.70712 33.3592 3.70712 38.5592 6.70712 43.6592C9.80712 48.9592 11.6071 54.0592 12.2071 60.0592C12.8071 65.4592 13.0071 70.9592 14.3071 76.2592C15.6071 81.2592 18.5071 87.9592 23.7071 89.8592C29.9071 92.2592 32.9071 85.5592 34.8071 80.9592C37.0071 75.5592 38.4071 69.8592 40.0071 64.1592C40.7071 61.6592 41.4071 59.1592 42.1071 56.6592C42.2071 56.2592 42.5071 55.5592 42.5071 55.1592V55.0592C43.3071 55.8592 44.0071 56.8592 44.5071 57.9592C46.7071 62.3592 46.8071 67.7592 47.5071 72.4592C48.1071 77.0592 48.7071 82.2592 51.5071 86.1592C55.3071 91.5592 60.7071 89.3592 64.1071 84.7592C71.0071 75.3592 68.9071 62.7592 71.0071 51.9592C73.3071 39.2592 81.4071 27.2592 77.4071 13.7592ZM66.5071 46.5592C63.9071 56.3592 65.7071 66.9592 62.3071 76.5592C61.5071 78.8592 60.3071 81.1592 58.5071 82.9592C56.5071 84.9592 55.4071 81.2592 54.8071 79.5592C53.4071 75.4592 53.0071 71.1592 52.3071 66.8592C51.4071 61.3592 48.4071 45.9592 39.7071 48.7592C35.5071 50.1592 34.4071 55.9592 33.3071 59.6592C32.0071 64.4592 30.8071 69.2592 29.3071 74.0592C28.6071 76.0592 28.0071 78.1592 27.0071 80.1592C25.8071 82.4592 24.4071 80.8592 24.2071 80.5592C21.7071 76.7592 21.0071 71.9592 20.5071 67.5592C20.0071 62.6592 19.8071 57.7592 18.7071 52.9592C17.6071 47.9592 15.3071 43.5592 12.7071 39.1592C9.90712 34.3592 6.80712 29.3592 7.50712 23.5592C8.10712 18.5592 11.1071 13.6592 15.2071 10.7592C22.4071 5.55923 31.8071 7.05923 40.2071 10.0592C41.6071 10.6592 46.8071 12.6592 49.5071 13.9592C52.4071 15.3592 54.7071 11.4592 52.0071 9.65923C51.3071 9.25923 50.6071 8.75923 49.9071 8.35923C59.0071 6.85923 70.3071 7.45923 72.2071 17.2592C74.4071 27.3592 69.1071 36.8592 66.5071 46.5592Z" fill="black"></path>
  </symbol>
  <symbol fill="none" xmlns="http://www.w3.org/2000/svg" viewBox="0 0 68 114" id="toothbrush">
    <path d="M16.9871 0.990528C14.2369 2.29003 12.7253 5.16203 13.0146 8.02898L2.10338 13.1847C0.93821 13.7353 0.440001 15.1261 0.990564 16.2912L12.9528 41.6073C13.5034 42.7725 14.8942 43.2707 16.0593 42.7202L26.6077 37.7359C26.6665 37.9559 28.729 41.2519 27.1873 45.5551C25.9006 49.1469 26.0898 53.0246 27.7197 56.4741L54.1718 112.455C54.7223 113.621 56.1131 114.119 57.2783 113.568L65.717 109.581C66.8821 109.03 67.3804 107.639 66.8298 106.474L42.0294 53.9883C40.9319 51.6658 40.8047 49.0551 41.6709 46.637C42.9576 43.0452 42.7684 39.1675 41.1386 35.7182L26.3067 4.32899C24.6577 0.839164 20.4769 -0.658469 16.9871 0.990528ZM10.1942 24.8459L18.6329 20.8585L20.6266 25.0778L12.1879 29.0653L10.1942 24.8459ZM14.6455 12.4198L16.6392 16.6391L8.20048 20.6266L6.20677 16.4072L14.6455 12.4198ZM16.1753 37.504L14.1816 33.2846L22.6203 29.2972L24.614 33.5165L16.1753 37.504ZM36.9192 37.7119C38.0166 40.0344 38.1439 42.6451 37.2776 45.0632C35.991 48.655 36.1801 52.5327 37.81 55.982L61.6136 106.358L57.3942 108.352L31.9391 54.4804C30.8417 52.1581 30.7144 49.5472 31.5806 47.1291C32.8673 43.5373 32.6781 39.6596 31.0482 36.2101C29.6321 33.2133 19.0836 10.8892 17.868 8.31641C17.3183 7.15313 17.8175 5.75954 18.9808 5.20988C20.1441 4.66021 21.5376 5.15942 22.0873 6.3227L36.9192 37.7119Z" fill="black" fill-opacity="0.2"></path>
  </symbol>
  <symbol width="217" height="91" viewBox="0 0 217 91" fill="none" xmlns="http://www.w3.org/2000/svg" id="logo">
    <path d="M77.4071 13.7592C75.5071 7.45923 70.2071 3.85923 64.2071 1.85923C56.5071 -0.740766 48.4071 0.359234 40.8071 2.65923C40.5071 2.75923 40.2071 2.85923 40.0071 2.95923C32.5071 -0.040766 24.3071 -1.24077 16.7071 1.65923C6.50712 5.55923 -0.99288 16.3592 0.10712 27.3592C0.70712 33.3592 3.70712 38.5592 6.70712 43.6592C9.80712 48.9592 11.6071 54.0592 12.2071 60.0592C12.8071 65.4592 13.0071 70.9592 14.3071 76.2592C15.6071 81.2592 18.5071 87.9592 23.7071 89.8592C29.9071 92.2592 32.9071 85.5592 34.8071 80.9592C37.0071 75.5592 38.4071 69.8592 40.0071 64.1592C40.7071 61.6592 41.4071 59.1592 42.1071 56.6592C42.2071 56.2592 42.5071 55.5592 42.5071 55.1592V55.0592C43.3071 55.8592 44.0071 56.8592 44.5071 57.9592C46.7071 62.3592 46.8071 67.7592 47.5071 72.4592C48.1071 77.0592 48.7071 82.2592 51.5071 86.1592C55.3071 91.5592 60.7071 89.3592 64.1071 84.7592C71.0071 75.3592 68.9071 62.7592 71.0071 51.9592C73.3071 39.2592 81.4071 27.2592 77.4071 13.7592ZM66.5071 46.5592C63.9071 56.3592 65.7071 66.9592 62.3071 76.5592C61.5071 78.8592 60.3071 81.1592 58.5071 82.9592C56.5071 84.9592 55.4071 81.2592 54.8071 79.5592C53.4071 75.4592 53.0071 71.1592 52.3071 66.8592C51.4071 61.3592 48.4071 45.9592 39.7071 48.7592C35.5071 50.1592 34.4071 55.9592 33.3071 59.6592C32.0071 64.4592 30.8071 69.2592 29.3071 74.0592C28.6071 76.0592 28.0071 78.1592 27.0071 80.1592C25.8071 82.4592 24.4071 80.8592 24.2071 80.5592C21.7071 76.7592 21.0071 71.9592 20.5071 67.5592C20.0071 62.6592 19.8071 57.7592 18.7071 52.9592C17.6071 47.9592 15.3071 43.5592 12.7071 39.1592C9.90712 34.3592 6.80712 29.3592 7.50712 23.5592C8.10712 18.5592 11.1071 13.6592 15.2071 10.7592C22.4071 5.55923 31.8071 7.05923 40.2071 10.0592C41.6071 10.6592 46.8071 12.6592 49.5071 13.9592C52.4071 15.3592 54.7071 11.4592 52.0071 9.65923C51.3071 9.25923 50.6071 8.75923 49.9071 8.35923C59.0071 6.85923 70.3071 7.45923 72.2071 17.2592C74.4071 27.3592 69.1071 36.8592 66.5071 46.5592Z" fill="black"/>
    <path d="M104.719 42.4395C102.82 42.4395 101.033 42.2871 99.3574 41.9824V18.4629C100.904 18.2754 102.697 18.1816 104.736 18.1816C106.787 18.1816 108.639 18.4629 110.291 19.0254C111.955 19.5762 113.344 20.3672 114.457 21.3984C116.707 23.4609 117.832 26.3496 117.832 30.0645C117.832 34.2246 116.578 37.3828 114.07 39.5391C111.82 41.4727 108.703 42.4395 104.719 42.4395ZM103.928 38.1504C104.689 38.291 105.451 38.3613 106.213 38.3613C106.975 38.3613 107.795 38.2148 108.674 37.9219C109.553 37.6172 110.314 37.1484 110.959 36.5156C112.342 35.1797 113.033 33.2344 113.033 30.6797C113.033 26.4844 111.504 23.9062 108.445 22.9453C107.438 22.6289 106.271 22.4707 104.947 22.4707H104.473C104.297 22.4707 104.115 22.4766 103.928 22.4883V38.1504ZM134.76 37.7812C135.486 37.7812 135.99 37.7109 136.271 37.5703L136.342 37.5879L136.166 42H123V18.498C123.316 18.5215 123.668 18.5391 124.055 18.5508L125.285 18.5859C126.105 18.6094 126.996 18.6211 127.957 18.6211C130.641 18.6211 133.295 18.5742 135.92 18.4805C135.791 19.5117 135.727 20.8887 135.727 22.6113C135.727 22.7988 135.738 22.9395 135.762 23.0332L135.727 23.0859C135.117 22.9102 134.25 22.8223 133.125 22.8223H127.588V27.3047H131.754C133.043 27.3047 133.816 27.2695 134.074 27.1992L134.127 31.541C133.564 31.4824 132.838 31.4531 131.947 31.4531H127.588V37.7812H134.76ZM141.193 42C141.264 41.6016 141.299 41.168 141.299 40.6992V18.6211H144.814L154.131 33.2812V19.8164C154.131 19.1719 154.072 18.7734 153.955 18.6211H158.701C158.643 19.0898 158.613 19.6055 158.613 20.168V42H154.957L145.781 27.9199V42H141.193ZM173.379 42.1055C172.816 42.0352 171.369 42 169.037 42H168.475V22.5586H164.994C163.963 22.5586 163.354 22.6113 163.166 22.7168C162.979 22.8223 162.832 22.916 162.727 22.998L162.674 22.9805V18.4805L162.727 18.4277C163.113 18.5566 164.156 18.6211 165.855 18.6211H176.877C177.908 18.6211 178.518 18.5684 178.705 18.4629C178.893 18.3574 179.039 18.2637 179.145 18.1816L179.197 18.1992V22.6992L179.145 22.752C178.758 22.623 177.715 22.5586 176.016 22.5586H173.379V42.1055ZM184.682 42.1406C183.674 42.0469 182.496 42 181.148 42H179.76L187.406 20.5723C187.746 19.6113 187.916 19.0547 187.916 18.9023C187.916 18.7383 187.91 18.6387 187.898 18.6035L187.916 18.5684C188.678 18.6035 189.486 18.6211 190.342 18.6211C191.045 18.6211 191.889 18.6094 192.873 18.5859L192.891 18.6211C192.867 18.668 192.855 18.7324 192.855 18.8145C192.855 19.0371 193.031 19.6289 193.383 20.5898L201.188 42.0527C200.953 42.041 200.678 42.0352 200.361 42.0352C200.361 42.0352 200.057 42.0234 199.447 42C199.154 42 198.891 42 198.656 42H195.932L194.279 36.9375H186.334L184.682 42.1406ZM192.908 32.7188L190.254 24.5449L187.67 32.7188H192.908ZM207.463 42C205.74 42 204.598 42.0352 204.035 42.1055V18.5156C204.316 18.5859 204.896 18.6211 205.775 18.6211C206.666 18.6211 207.697 18.5977 208.869 18.5508V37.7812H212.508C213.562 37.7812 214.406 37.7461 215.039 37.6758C214.957 40.418 214.916 41.8418 214.916 41.9473V42.123C213.768 42.041 211.84 42 209.133 42H207.463Z" fill="black"/>
    <path d="M140.297 70.8633C139.422 71.7383 138.051 72.1758 136.184 72.1758C134.371 72.1758 132.891 71.625 131.742 70.5234C130.578 69.4062 129.996 67.9219 129.996 66.0703C129.996 64.1875 130.57 62.6406 131.719 61.4297C132.938 60.1562 134.566 59.5195 136.605 59.5195C138.051 59.5195 139.262 59.8359 140.238 60.4688L139.77 63.4688L139.688 63.457C139.312 63.0039 138.918 62.707 138.504 62.5664C137.832 62.332 137.16 62.2148 136.488 62.2148C135.816 62.2148 135.289 62.3008 134.906 62.4727C134.523 62.6445 134.195 62.8828 133.922 63.1875C133.375 63.8125 133.102 64.6406 133.102 65.6719C133.102 67.5 133.734 68.6953 135 69.2578C135.438 69.4453 135.898 69.5391 136.383 69.5391C136.875 69.5391 137.301 69.4961 137.66 69.4102C138.027 69.3242 138.359 69.207 138.656 69.0586C139.289 68.7461 139.719 68.3828 139.945 67.9688L140.027 68.0039L140.297 70.8633ZM145.465 70.6875C145.465 71.3594 145.48 71.7969 145.512 72H142.535V54.5391H145.465V70.6875ZM148.395 56.2617C149.02 55.2852 149.672 54.4258 150.352 53.6836L152.871 55.6641C152.535 56.0781 152.223 56.4844 151.934 56.8828C151.934 56.8828 151.633 57.3086 151.031 58.1602L148.395 56.2617ZM151.477 70.6875C151.477 71.3594 151.492 71.7969 151.523 72H148.547V59.7539H151.477V70.6875ZM157.875 70.5C157.875 71.1875 157.906 71.6875 157.969 72H155.027V59.7539H157.875V60.7969C158.906 59.9453 160.008 59.5195 161.18 59.5195C162.461 59.5195 163.484 59.957 164.25 60.832C165.016 61.6992 165.398 62.8438 165.398 64.2656V68.9297C165.398 70.25 165.418 71.043 165.457 71.3086C165.496 71.5742 165.547 71.7461 165.609 71.8242C165.68 71.9023 165.738 71.9727 165.785 72.0352L165.762 72.082C165.129 72.0273 164.668 72 164.379 72H163.559C163.309 72 162.973 72.0117 162.551 72.0352V65.6484C162.551 63.3594 161.855 62.2148 160.465 62.2148C159.434 62.2148 158.57 62.7461 157.875 63.8086V70.5ZM168.457 56.2617C169.082 55.2852 169.734 54.4258 170.414 53.6836L172.934 55.6641C172.598 56.0781 172.285 56.4844 171.996 56.8828C171.996 56.8828 171.695 57.3086 171.094 58.1602L168.457 56.2617ZM171.539 70.6875C171.539 71.3594 171.555 71.7969 171.586 72H168.609V59.7539H171.539V70.6875ZM184.43 70.8633C183.555 71.7383 182.184 72.1758 180.316 72.1758C178.504 72.1758 177.023 71.625 175.875 70.5234C174.711 69.4062 174.129 67.9219 174.129 66.0703C174.129 64.1875 174.703 62.6406 175.852 61.4297C177.07 60.1562 178.699 59.5195 180.738 59.5195C182.184 59.5195 183.395 59.8359 184.371 60.4688L183.902 63.4688L183.82 63.457C183.445 63.0039 183.051 62.707 182.637 62.5664C181.965 62.332 181.293 62.2148 180.621 62.2148C179.949 62.2148 179.422 62.3008 179.039 62.4727C178.656 62.6445 178.328 62.8828 178.055 63.1875C177.508 63.8125 177.234 64.6406 177.234 65.6719C177.234 67.5 177.867 68.6953 179.133 69.2578C179.57 69.4453 180.031 69.5391 180.516 69.5391C181.008 69.5391 181.434 69.4961 181.793 69.4102C182.16 69.3242 182.492 69.207 182.789 69.0586C183.422 68.7461 183.852 68.3828 184.078 67.9688L184.16 68.0039L184.43 70.8633Z" fill="black"/>
    <rect width="25" height="2" transform="translate(189 65)" fill="black"/>
    <rect width="25" height="2" transform="translate(100 65)" fill="black"/>
  </symbol>
</svg>