<svg width="49" height="52" viewBox="0 0 49 52" fill="none" xmlns="http://www.w3.org/2000/svg">
<path d="M32.4849 2.47914L30.5218 14.743L38.9105 23.902C39.1211 24.1325 39.19 24.4611 39.0854 24.7566C39.0241 24.9281 38.912 25.0729 38.7666 25.1735C38.663 25.2452 38.5431 25.2933 38.4154 25.3145L26.1452 27.2369L20.0262 38.0447C19.8734 38.3171 19.5814 38.4816 19.268 38.4755C18.9565 38.4681 18.6726 38.291 18.5298 38.0108L12.9104 26.9348L0.740558 24.4546C0.434179 24.3925 0.186232 24.1664 0.0963657 23.8657C0.00775976 23.5669 0.0891166 23.2418 0.310267 23.0215L9.10744 14.2544L7.70626 1.91384C7.67021 1.6055 7.80831 1.30024 8.06633 1.12162C8.32435 0.943004 8.65869 0.921208 8.93459 1.06351L19.9918 6.71954L31.2947 1.57206C31.5787 1.44263 31.9117 1.48094 32.1602 1.66906C32.4094 1.8621 32.5346 2.17054 32.4849 2.47914ZM21.7771 41.0391C21.2629 41.3951 21.1348 42.0993 21.4908 42.6135L27.189 50.8448C27.545 51.359 28.2492 51.487 28.7634 51.1311C29.2776 50.7751 29.4057 50.0709 29.0497 49.5567L23.3515 41.3254C22.9955 40.8112 22.2913 40.6832 21.7771 41.0391ZM29.3139 31.8141C28.7996 32.1701 28.6716 32.8742 29.0276 33.3885L34.7258 41.6197C35.0818 42.134 35.7859 42.262 36.3001 41.906C36.8144 41.55 36.9424 40.8459 36.5864 40.3316L30.8883 32.1004C30.5323 31.5861 29.8281 31.4581 29.3139 31.8141ZM40.6643 27.5772C40.15 27.9332 40.022 28.6373 40.378 29.1515L46.0775 37.3846C46.4335 37.8989 47.1376 38.0269 47.6519 37.6709C48.1661 37.3149 48.2941 36.6108 47.9382 36.0966L42.2387 27.8635C41.8839 27.351 41.1785 27.2212 40.6643 27.5772Z" fill="black"/>
</svg>
