<svg width="21" height="21" viewBox="0 0 21 21" fill="none" xmlns="http://www.w3.org/2000/svg">
<path d="M10.14 0C4.53988 0 0 4.53988 0 10.14C0 15.7403 4.53988 20.28 10.14 20.28C15.7401 20.28 20.28 15.7403 20.28 10.14C20.28 4.53988 15.7401 0 10.14 0ZM15.6618 15.662C14.1869 17.1366 12.2258 17.949 10.14 17.949C8.0542 17.949 6.09313 17.1366 4.61816 15.662C3.1434 14.1869 2.33098 12.2258 2.33098 10.14C2.33098 5.83415 5.83395 2.33119 10.14 2.33119C14.4461 2.33119 17.949 5.83415 17.949 10.14C17.949 12.2258 17.1368 14.1869 15.6618 15.662Z" fill="black"/>
<path d="M10.1477 13.3745C8.36248 13.3745 6.91002 11.922 6.91002 10.1368C6.91002 8.35155 8.36248 6.8993 10.1477 6.8993C11.4485 6.8993 12.5718 7.67096 13.0861 8.77987H15.5491C14.9431 6.36026 12.7551 4.56812 10.1477 4.56812C7.07226 4.56812 4.57904 7.06134 4.57904 10.1368C4.57904 13.2125 7.07226 15.7055 10.1477 15.7055C12.7592 15.7055 14.9498 13.9077 15.5517 11.4824H13.0916C12.5795 12.5978 11.4531 13.3745 10.1477 13.3745Z" fill="black"/>
</svg>
