<svg width="186" height="188" viewBox="0 0 186 188" fill="none" xmlns="http://www.w3.org/2000/svg">
<path d="M171 -23.3386C171 84.0844 79.6471 172.323 -34.5 172.323C-148.647 172.323 -240 84.0844 -240 -23.3386C-240 -130.762 -148.647 -219 -34.5 -219C79.6471 -219 171 -130.762 171 -23.3386Z" stroke="black" stroke-opacity="0.1" stroke-width="30"/>
<path d="M124 -43C124 48.5937 46.0786 124 -51.5 124C-149.079 124 -227 48.5937 -227 -43C-227 -134.594 -149.079 -210 -51.5 -210C46.0786 -210 124 -134.594 124 -43Z" stroke="black" stroke-opacity="0.1" stroke-width="30"/>
<path d="M77 -64.6614C77 11.103 12.51 73.6772 -68.5 73.6772C-149.51 73.6772 -214 11.103 -214 -64.6614C-214 -140.426 -149.51 -203 -68.5 -203C12.51 -203 77 -140.426 77 -64.6614Z" stroke="black" stroke-opacity="0.1" stroke-width="30"/>
</svg>
