<svg width="21" height="21" viewBox="0 0 21 21" fill="none" xmlns="http://www.w3.org/2000/svg">
<path d="M10.1397 4.79349C10.7745 4.79349 11.3517 5.05241 11.7723 5.47215C12.1921 5.89364 12.451 6.46992 12.451 7.11161C12.4536 7.21655 12.4948 7.30772 12.5594 7.37224C12.6299 7.44019 12.7254 7.4832 12.8303 7.4832C12.9361 7.4832 13.0316 7.44105 13.1004 7.37396C13.1675 7.30429 13.2097 7.20881 13.2097 7.10472C13.2097 6.25746 12.8656 5.48935 12.3108 4.93454C11.756 4.37888 10.9879 4.03568 10.1406 4.03568C9.29335 4.03568 8.52525 4.37888 7.96957 4.93454C7.41392 5.48933 7.07071 6.25746 7.07071 7.10558C7.07071 7.9537 7.41392 8.72095 7.96957 9.27662C8.52437 9.83227 9.29249 10.1755 10.1406 10.1755C10.421 10.1755 10.692 10.1376 10.9483 10.068C11.2184 9.99485 11.4713 9.88733 11.6984 9.754C12.0132 9.56992 12.4183 9.67486 12.6024 9.98968C12.7865 10.3045 12.6815 10.7088 12.3667 10.8937C12.0304 11.0915 11.67 11.2455 11.2958 11.3479C10.9277 11.4476 10.5397 11.5018 10.1406 11.5018C8.92694 11.5018 7.82763 11.0098 7.03205 10.215C6.23725 9.41938 5.74524 8.32096 5.74524 7.10647C5.74524 5.89279 6.23725 4.79349 7.03205 3.9979C7.82769 3.20311 8.92612 2.7111 10.1406 2.7111C11.3543 2.7111 12.4536 3.20311 13.2483 3.99876C14.0431 4.79441 14.536 5.89283 14.536 7.10645C14.536 7.57695 14.3441 8.00359 14.0362 8.31154C13.7248 8.61946 13.2991 8.81042 12.8303 8.81042C12.5025 8.81042 12.1963 8.71752 11.9366 8.55754C11.8858 8.62034 11.8316 8.68054 11.774 8.73818C11.356 9.1588 10.7779 9.41769 10.1397 9.41769C9.50404 9.41769 8.92687 9.15878 8.5071 8.73903C8.08736 8.31755 7.82845 7.74126 7.82845 7.10645C7.82845 6.46822 8.08736 5.89019 8.50539 5.47215L8.54839 5.43258C8.96299 5.03776 9.52382 4.79521 10.1397 4.79521L10.1397 4.79349ZM0.32277 8.94383L2.66746 7.25619V0.663177C2.66746 0.297601 2.96423 0 3.33064 0H16.9487C17.3143 0 17.6119 0.296764 17.6119 0.663177V7.25619L19.9566 8.94469C20.1501 9.06081 20.28 9.27241 20.28 9.5141V18.0477C20.28 19.6253 18.9898 20.9198 17.4079 20.9198H2.87295C1.29026 20.9198 0 19.6304 0 18.0477V9.5141C0 9.27239 0.129883 9.0608 0.32343 8.94469L0.32277 8.94383ZM17.3762 11.9397C17.3495 11.9629 17.3211 11.9835 17.291 12.0016L14.5531 13.9731L18.9046 18.4339C18.9365 18.31 18.9537 18.181 18.9537 18.0477V10.8051L17.3761 11.9405L17.3762 11.9397ZM16.2855 11.0976V1.3253H3.99304V11.0976L7.09126 13.3289C7.11104 13.3418 7.12997 13.3555 7.14803 13.3693L10.1397 15.5231L13.1313 13.3693C13.1494 13.3547 13.1692 13.3409 13.1881 13.3289L16.2855 11.0976ZM2.98651 11.9999C2.95726 11.9818 2.92974 11.962 2.90393 11.9397L1.3264 10.8034V18.046C1.3264 18.1793 1.3436 18.3092 1.37543 18.4322L5.72703 13.9723L2.98751 11.9991L2.98651 11.9999ZM13.4685 14.7541L10.5372 16.865C10.3118 17.0344 9.99442 17.0465 9.75443 16.8736L6.81101 14.7541L2.22821 19.4523C2.42518 19.5435 2.64366 19.5934 2.87333 19.5934H17.4083C17.638 19.5934 17.8565 19.5426 18.0534 19.4523L13.4697 14.7533L13.4685 14.7541ZM10.8364 6.40459C10.6601 6.22826 10.4132 6.11815 10.1397 6.11815C9.87992 6.11815 9.64424 6.21793 9.46876 6.37964L9.44296 6.4063C9.26491 6.58436 9.15394 6.83122 9.15394 7.10304C9.15394 7.37657 9.26405 7.62344 9.44124 7.80149C9.61929 7.97954 9.8653 8.08879 10.1397 8.08879C10.4115 8.08879 10.6584 7.97869 10.8364 7.79978C11.0145 7.62344 11.1246 7.37571 11.1246 7.10304C11.1246 6.82951 11.0145 6.58264 10.8356 6.40373L10.8364 6.40459Z" fill="black"/>
</svg>
