<svg width="30" height="30" viewBox="0 0 30 30" fill="none" xmlns="http://www.w3.org/2000/svg">
<path d="M23 0H7.00002C5.14376 0.00249983 3.36514 0.739998 2.05251 2.05251C0.739998 3.36502 0.00252799 5.14376 0 7.00002V23C0.00249983 24.8562 0.739998 26.6349 2.05251 27.9475C3.36502 29.26 5.14376 29.9975 7.00002 30H23C24.8562 29.9975 26.6349 29.26 27.9475 27.9475C29.26 26.635 29.9975 24.8562 30 23V7.00002C29.9975 5.14376 29.26 3.36514 27.9475 2.05251C26.635 0.739998 24.8562 0.00252799 23 0ZM28 23C27.9987 24.3249 27.4712 25.5962 26.5337 26.5337C25.5962 27.4712 24.325 27.9987 23 27.9999H7.00002C5.67503 27.9987 4.40377 27.4712 3.46626 26.5337C2.52876 25.5962 2.00128 24.325 2.00003 23V6.99999C2.00128 5.675 2.52876 4.40373 3.46626 3.46623C4.40377 2.52873 5.675 2.00124 7.00002 2H23C24.325 2.00125 25.5962 2.52873 26.5337 3.46623C27.4712 4.40373 27.9987 5.67496 28 6.99999V23ZM15 7.99998C13.1437 7.99998 11.3626 8.73749 10.0499 10.05C8.73729 11.3624 7.99995 13.1437 7.99995 15C7.99995 16.8563 8.73745 18.6375 10.0499 19.9501C11.3624 21.2627 13.1437 22.0001 15 22.0001C16.8563 22.0001 18.6374 21.2626 19.9501 19.9501C21.2627 18.6376 22 16.8563 22 15C21.9975 13.1438 21.2601 11.3652 19.9475 10.0525C18.635 8.74001 16.8563 8.00251 15 7.99998ZM15 20C13.6738 20 12.4025 19.4737 11.465 18.535C10.5262 17.5975 9.99998 16.3262 9.99998 14.9999C9.99998 13.6736 10.5262 12.4024 11.465 11.4649C12.4025 10.5262 13.6737 9.99992 15 9.99992C16.3263 9.99992 17.5975 10.5262 18.535 11.4649C19.4738 12.4024 20 13.6736 20 14.9999C19.9988 16.3249 19.4713 17.5962 18.5338 18.5337C17.5963 19.4712 16.325 19.9987 15 20ZM25.2499 6.49983C25.2499 7.20731 24.8237 7.84606 24.1699 8.11608C23.5161 8.38733 22.7624 8.23733 22.2624 7.73733C21.7624 7.23733 21.6124 6.48357 21.8837 5.82984C22.1537 5.17609 22.7924 4.74985 23.4999 4.74985C24.4662 4.74985 25.2499 5.53356 25.2499 6.49983Z" fill="black"/>
</svg>
