<svg width="133" height="133" viewBox="0 0 133 133" fill="none" xmlns="http://www.w3.org/2000/svg">
<path d="M101.977 22.493L88.4532 4.387C87.7359 3.42652 86.3288 3.33386 85.4916 4.19071L78.3663 11.4836C77.7024 12.1635 77.6238 13.2224 78.1804 13.9925L86.0559 24.8899L77.3486 41.5011L74.5627 40.0433C73.6072 39.5436 72.4277 39.9125 71.9273 40.8671L67.4088 49.4872L59.9995 54.8279C58.7968 55.6947 57.7974 56.8469 57.1094 58.1597C57.0908 58.1949 34.2702 101.731 34.2829 101.707C29.8613 110.148 33.1146 120.552 41.5563 124.969C49.9984 129.387 60.4317 126.092 64.8354 117.691C64.8357 117.691 64.8359 117.69 64.8362 117.69C66.1424 115.198 86.287 76.7673 87.6598 74.1483C88.3479 72.8353 88.7266 71.3581 88.7548 69.8765L88.929 60.7505L93.4471 52.1309C93.9482 51.1752 93.5783 49.9941 92.6228 49.4939L89.8392 48.0374L102.141 24.5685C102.491 23.9026 102.427 23.0953 101.977 22.493ZM43.3676 121.508C37.4239 118.398 34.8105 111.454 36.9662 105.311L60.3411 117.542C56.5142 122.798 49.2941 124.609 43.3676 121.508ZM84.8497 69.802C84.8332 70.6805 84.6085 71.5563 84.2006 72.335L62.2825 114.149L38.6525 101.785L60.5694 59.973L60.5696 59.973C60.9775 59.1943 61.5703 58.5109 62.2838 57.9966L69.0884 53.092L85.0096 61.4229L84.8497 69.802ZM86.1617 57.6172L71.5622 49.9779L74.4812 44.4093C79.2169 46.8871 84.493 49.6481 89.0807 52.0486L86.1617 57.6172ZM86.3788 46.2263L80.8096 43.3122L90.0768 25.6327C90.4208 24.9765 90.364 24.1824 89.93 23.5819L82.3094 13.0373L86.6899 8.55345L98.1109 23.8444L86.3788 46.2263Z" fill="black" fill-opacity="0.2"/>
<path d="M73.0857 62.2795C70.2171 60.779 66.6612 61.8903 65.1583 64.7576L59.3353 75.8662C57.8265 78.7439 58.9366 82.2931 61.8149 83.7993L63.895 84.8878C66.7693 86.3918 70.3225 85.2711 71.8224 82.4098L77.6454 71.3011C79.1542 68.4234 78.0441 64.8742 75.1658 63.368L73.0857 62.2795ZM74.1859 69.4875L68.3628 80.5964C67.8586 81.5575 66.6669 81.9296 65.7058 81.4269L63.6258 80.3384C62.6609 79.8333 62.2893 78.6442 62.7947 77.6796L68.6177 66.5708C69.1211 65.6101 70.3137 65.2375 71.2746 65.7403L73.3547 66.8288C74.3195 67.3339 74.6913 68.5227 74.1859 69.4875Z" fill="black" fill-opacity="0.2"/>
<path d="M50.4152 92.8849C48.6059 96.3366 49.9362 100.592 53.3886 102.399C56.8395 104.204 61.1046 102.858 62.9051 99.4236C64.7144 95.9719 63.3845 91.7162 59.9319 89.9096C56.4888 88.1079 52.2196 89.443 50.4152 92.8849ZM59.4455 97.6098C59.4454 97.6101 59.4456 97.61 59.4455 97.6098C58.6406 99.146 56.7361 99.7418 55.1997 98.9378C53.6604 98.1323 53.0688 96.2362 53.8748 94.6982C54.6805 93.1624 56.5846 92.5666 58.121 93.3705C59.6599 94.1757 60.2517 96.0722 59.4455 97.6098Z" fill="black" fill-opacity="0.2"/>
</svg>
