<svg width="217" height="91" viewBox="0 0 217 91" fill="none" xmlns="http://www.w3.org/2000/svg">
<path d="M77.4071 13.7592C75.5071 7.45923 70.2071 3.85923 64.2071 1.85923C56.5071 -0.740766 48.4071 0.359234 40.8071 2.65923C40.5071 2.75923 40.2071 2.85923 40.0071 2.95923C32.5071 -0.040766 24.3071 -1.24077 16.7071 1.65923C6.50712 5.55923 -0.99288 16.3592 0.10712 27.3592C0.70712 33.3592 3.70712 38.5592 6.70712 43.6592C9.80712 48.9592 11.6071 54.0592 12.2071 60.0592C12.8071 65.4592 13.0071 70.9592 14.3071 76.2592C15.6071 81.2592 18.5071 87.9592 23.7071 89.8592C29.9071 92.2592 32.9071 85.5592 34.8071 80.9592C37.0071 75.5592 38.4071 69.8592 40.0071 64.1592C40.7071 61.6592 41.4071 59.1592 42.1071 56.6592C42.2071 56.2592 42.5071 55.5592 42.5071 55.1592V55.0592C43.3071 55.8592 44.0071 56.8592 44.5071 57.9592C46.7071 62.3592 46.8071 67.7592 47.5071 72.4592C48.1071 77.0592 48.7071 82.2592 51.5071 86.1592C55.3071 91.5592 60.7071 89.3592 64.1071 84.7592C71.0071 75.3592 68.9071 62.7592 71.0071 51.9592C73.3071 39.2592 81.4071 27.2592 77.4071 13.7592ZM66.5071 46.5592C63.9071 56.3592 65.7071 66.9592 62.3071 76.5592C61.5071 78.8592 60.3071 81.1592 58.5071 82.9592C56.5071 84.9592 55.4071 81.2592 54.8071 79.5592C53.4071 75.4592 53.0071 71.1592 52.3071 66.8592C51.4071 61.3592 48.4071 45.9592 39.7071 48.7592C35.5071 50.1592 34.4071 55.9592 33.3071 59.6592C32.0071 64.4592 30.8071 69.2592 29.3071 74.0592C28.6071 76.0592 28.0071 78.1592 27.0071 80.1592C25.8071 82.4592 24.4071 80.8592 24.2071 80.5592C21.7071 76.7592 21.0071 71.9592 20.5071 67.5592C20.0071 62.6592 19.8071 57.7592 18.7071 52.9592C17.6071 47.9592 15.3071 43.5592 12.7071 39.1592C9.90712 34.3592 6.80712 29.3592 7.50712 23.5592C8.10712 18.5592 11.1071 13.6592 15.2071 10.7592C22.4071 5.55923 31.8071 7.05923 40.2071 10.0592C41.6071 10.6592 46.8071 12.6592 49.5071 13.9592C52.4071 15.3592 54.7071 11.4592 52.0071 9.65923C51.3071 9.25923 50.6071 8.75923 49.9071 8.35923C59.0071 6.85923 70.3071 7.45923 72.2071 17.2592C74.4071 27.3592 69.1071 36.8592 66.5071 46.5592Z" fill="white"/>
<path d="M104.719 42.4395C102.82 42.4395 101.033 42.2871 99.3574 41.9824V18.4629C100.904 18.2754 102.697 18.1816 104.736 18.1816C106.787 18.1816 108.639 18.4629 110.291 19.0254C111.955 19.5762 113.344 20.3672 114.457 21.3984C116.707 23.4609 117.832 26.3496 117.832 30.0645C117.832 34.2246 116.578 37.3828 114.07 39.5391C111.82 41.4727 108.703 42.4395 104.719 42.4395ZM103.928 38.1504C104.689 38.291 105.451 38.3613 106.213 38.3613C106.975 38.3613 107.795 38.2148 108.674 37.9219C109.553 37.6172 110.314 37.1484 110.959 36.5156C112.342 35.1797 113.033 33.2344 113.033 30.6797C113.033 26.4844 111.504 23.9062 108.445 22.9453C107.438 22.6289 106.271 22.4707 104.947 22.4707H104.473C104.297 22.4707 104.115 22.4766 103.928 22.4883V38.1504ZM134.76 37.7812C135.486 37.7812 135.99 37.7109 136.271 37.5703L136.342 37.5879L136.166 42H123V18.498C123.316 18.5215 123.668 18.5391 124.055 18.5508L125.285 18.5859C126.105 18.6094 126.996 18.6211 127.957 18.6211C130.641 18.6211 133.295 18.5742 135.92 18.4805C135.791 19.5117 135.727 20.8887 135.727 22.6113C135.727 22.7988 135.738 22.9395 135.762 23.0332L135.727 23.0859C135.117 22.9102 134.25 22.8223 133.125 22.8223H127.588V27.3047H131.754C133.043 27.3047 133.816 27.2695 134.074 27.1992L134.127 31.541C133.564 31.4824 132.838 31.4531 131.947 31.4531H127.588V37.7812H134.76ZM141.193 42C141.264 41.6016 141.299 41.168 141.299 40.6992V18.6211H144.814L154.131 33.2812V19.8164C154.131 19.1719 154.072 18.7734 153.955 18.6211H158.701C158.643 19.0898 158.613 19.6055 158.613 20.168V42H154.957L145.781 27.9199V42H141.193ZM173.379 42.1055C172.816 42.0352 171.369 42 169.037 42H168.475V22.5586H164.994C163.963 22.5586 163.354 22.6113 163.166 22.7168C162.979 22.8223 162.832 22.916 162.727 22.998L162.674 22.9805V18.4805L162.727 18.4277C163.113 18.5566 164.156 18.6211 165.855 18.6211H176.877C177.908 18.6211 178.518 18.5684 178.705 18.4629C178.893 18.3574 179.039 18.2637 179.145 18.1816L179.197 18.1992V22.6992L179.145 22.752C178.758 22.623 177.715 22.5586 176.016 22.5586H173.379V42.1055ZM184.682 42.1406C183.674 42.0469 182.496 42 181.148 42H179.76L187.406 20.5723C187.746 19.6113 187.916 19.0547 187.916 18.9023C187.916 18.7383 187.91 18.6387 187.898 18.6035L187.916 18.5684C188.678 18.6035 189.486 18.6211 190.342 18.6211C191.045 18.6211 191.889 18.6094 192.873 18.5859L192.891 18.6211C192.867 18.668 192.855 18.7324 192.855 18.8145C192.855 19.0371 193.031 19.6289 193.383 20.5898L201.188 42.0527C200.953 42.041 200.678 42.0352 200.361 42.0352C200.361 42.0352 200.057 42.0234 199.447 42C199.154 42 198.891 42 198.656 42H195.932L194.279 36.9375H186.334L184.682 42.1406ZM192.908 32.7188L190.254 24.5449L187.67 32.7188H192.908ZM207.463 42C205.74 42 204.598 42.0352 204.035 42.1055V18.5156C204.316 18.5859 204.896 18.6211 205.775 18.6211C206.666 18.6211 207.697 18.5977 208.869 18.5508V37.7812H212.508C213.562 37.7812 214.406 37.7461 215.039 37.6758C214.957 40.418 214.916 41.8418 214.916 41.9473V42.123C213.768 42.041 211.84 42 209.133 42H207.463Z" fill="white"/>
<path d="M140.297 70.8633C139.422 71.7383 138.051 72.1758 136.184 72.1758C134.371 72.1758 132.891 71.625 131.742 70.5234C130.578 69.4062 129.996 67.9219 129.996 66.0703C129.996 64.1875 130.57 62.6406 131.719 61.4297C132.938 60.1562 134.566 59.5195 136.605 59.5195C138.051 59.5195 139.262 59.8359 140.238 60.4688L139.77 63.4688L139.688 63.457C139.312 63.0039 138.918 62.707 138.504 62.5664C137.832 62.332 137.16 62.2148 136.488 62.2148C135.816 62.2148 135.289 62.3008 134.906 62.4727C134.523 62.6445 134.195 62.8828 133.922 63.1875C133.375 63.8125 133.102 64.6406 133.102 65.6719C133.102 67.5 133.734 68.6953 135 69.2578C135.438 69.4453 135.898 69.5391 136.383 69.5391C136.875 69.5391 137.301 69.4961 137.66 69.4102C138.027 69.3242 138.359 69.207 138.656 69.0586C139.289 68.7461 139.719 68.3828 139.945 67.9688L140.027 68.0039L140.297 70.8633ZM145.465 70.6875C145.465 71.3594 145.48 71.7969 145.512 72H142.535V54.5391H145.465V70.6875ZM148.395 56.2617C149.02 55.2852 149.672 54.4258 150.352 53.6836L152.871 55.6641C152.535 56.0781 152.223 56.4844 151.934 56.8828C151.934 56.8828 151.633 57.3086 151.031 58.1602L148.395 56.2617ZM151.477 70.6875C151.477 71.3594 151.492 71.7969 151.523 72H148.547V59.7539H151.477V70.6875ZM157.875 70.5C157.875 71.1875 157.906 71.6875 157.969 72H155.027V59.7539H157.875V60.7969C158.906 59.9453 160.008 59.5195 161.18 59.5195C162.461 59.5195 163.484 59.957 164.25 60.832C165.016 61.6992 165.398 62.8438 165.398 64.2656V68.9297C165.398 70.25 165.418 71.043 165.457 71.3086C165.496 71.5742 165.547 71.7461 165.609 71.8242C165.68 71.9023 165.738 71.9727 165.785 72.0352L165.762 72.082C165.129 72.0273 164.668 72 164.379 72H163.559C163.309 72 162.973 72.0117 162.551 72.0352V65.6484C162.551 63.3594 161.855 62.2148 160.465 62.2148C159.434 62.2148 158.57 62.7461 157.875 63.8086V70.5ZM168.457 56.2617C169.082 55.2852 169.734 54.4258 170.414 53.6836L172.934 55.6641C172.598 56.0781 172.285 56.4844 171.996 56.8828C171.996 56.8828 171.695 57.3086 171.094 58.1602L168.457 56.2617ZM171.539 70.6875C171.539 71.3594 171.555 71.7969 171.586 72H168.609V59.7539H171.539V70.6875ZM184.43 70.8633C183.555 71.7383 182.184 72.1758 180.316 72.1758C178.504 72.1758 177.023 71.625 175.875 70.5234C174.711 69.4062 174.129 67.9219 174.129 66.0703C174.129 64.1875 174.703 62.6406 175.852 61.4297C177.07 60.1562 178.699 59.5195 180.738 59.5195C182.184 59.5195 183.395 59.8359 184.371 60.4688L183.902 63.4688L183.82 63.457C183.445 63.0039 183.051 62.707 182.637 62.5664C181.965 62.332 181.293 62.2148 180.621 62.2148C179.949 62.2148 179.422 62.3008 179.039 62.4727C178.656 62.6445 178.328 62.8828 178.055 63.1875C177.508 63.8125 177.234 64.6406 177.234 65.6719C177.234 67.5 177.867 68.6953 179.133 69.2578C179.57 69.4453 180.031 69.5391 180.516 69.5391C181.008 69.5391 181.434 69.4961 181.793 69.4102C182.16 69.3242 182.492 69.207 182.789 69.0586C183.422 68.7461 183.852 68.3828 184.078 67.9688L184.16 68.0039L184.43 70.8633Z" fill="white"/>
<rect width="25" height="2" transform="translate(189 65)" fill="white"/>
<rect width="25" height="2" transform="translate(100 65)" fill="white"/>
</svg>
