<svg width="74" height="96" viewBox="0 0 74 96" fill="none" xmlns="http://www.w3.org/2000/svg">
<path d="M68.9255 31.1363C69.0739 30.8704 69.1579 30.5501 69.1655 30.262L69.4573 19.5483L73.8431 9.24659C74.2068 8.39197 73.8995 7.39964 73.1164 6.90033L63.5044 0.771196C62.7213 0.271876 61.6919 0.411848 61.0706 1.10221L53.5807 9.42457L43.9903 14.2088C43.7322 14.3372 43.4772 14.5487 43.2988 14.7953C7.23778 64.6333 5.36271 67.2152 5.30029 67.3131L1.2142 73.7211C0.650018 74.6059 0.909903 75.7805 1.79469 76.3446L30.6309 94.732C31.5157 95.2962 32.6902 95.0363 33.2544 94.1515C34.2385 92.6072 37.2809 87.8412 37.3691 87.6934C37.449 87.5589 66.7364 35.0598 68.9255 31.1363ZM45.3271 18.4744L64.7342 30.8494L61.629 36.4153L26.7625 44.1299L45.3271 18.4744ZM13.3491 62.6664L51.72 54.1762L35.0609 84.0365L9.62292 67.816L13.3491 62.6664ZM54.6372 13.1441L65.6392 20.1596L65.4583 26.8043L48.6891 16.1114L54.6372 13.1441ZM31.0719 90.5065L5.43975 74.1621L7.48279 70.9581L33.115 87.3025L31.0719 90.5065Z" fill="black" fill-opacity="0.2"/>
</svg>
