<svg width="21" height="22" viewBox="0 0 21 22" fill="none" xmlns="http://www.w3.org/2000/svg">
<path d="M9.48174 21.3909C8.91081 21.3909 8.35913 21.181 7.93261 20.8007C5.52471 18.6556 3.57697 16.0445 2.20782 13.1243C0.840666 10.2014 0.0896918 7.02908 0.00113457 3.80375C-0.0277494 2.87852 0.496961 2.02452 1.33556 1.63172L3.93115 0.420535C5.08744 -0.118621 6.46241 0.38106 7.00243 1.53735L8.30313 4.3274C8.56309 4.88293 8.59197 5.51835 8.38304 6.09507C8.17412 6.67081 7.74473 7.14066 7.18919 7.40061L5.57172 8.15351C5.77582 10.262 6.69816 12.2356 8.18481 13.7455L9.79264 12.9849L9.79168 12.9839C10.3472 12.7249 10.9826 12.697 11.5593 12.9059C12.1351 13.1158 12.604 13.5452 12.8639 14.1007L14.1666 16.8928H14.1656C14.44 17.4695 14.4496 18.1357 14.1926 18.7201C13.9056 19.3353 13.4031 19.8235 12.7792 20.0902L10.4522 21.1762C10.1479 21.3177 9.81679 21.3909 9.48174 21.3909ZM4.90575 1.74534C4.7931 1.74438 4.68238 1.76941 4.58033 1.81659L1.98572 3.02778C1.70556 3.1616 1.53032 3.4485 1.54188 3.7595C1.62371 6.77385 2.32558 9.74038 3.60415 12.4728C4.88369 15.2022 6.70427 17.6437 8.9553 19.6493C9.18636 19.8582 9.5195 19.9102 9.80254 19.7802L12.1296 18.6932V18.6942C12.4107 18.5815 12.6427 18.3726 12.7833 18.104C12.8622 17.9249 12.8584 17.7208 12.7727 17.5446L11.4691 14.7526H11.4701C11.29 14.3675 10.8317 14.2009 10.4457 14.381L8.8282 15.1339V15.1329C8.24091 15.4083 7.5429 15.285 7.08461 14.8248C5.34583 13.0581 4.26843 10.7465 4.03453 8.27805C3.97965 7.63491 4.33298 7.02644 4.91931 6.75589L6.53678 6.00203V6.00107C6.72163 5.91538 6.86508 5.75845 6.93441 5.56686C7.0047 5.37527 6.99507 5.16346 6.90938 4.97765L5.60481 2.18956C5.47772 1.91805 5.20525 1.74475 4.90584 1.74571L4.90575 1.74534ZM16.8327 12.6699C17.4537 10.7242 17.2776 8.61179 16.3427 6.79703C15.4088 4.98122 13.7922 3.61015 11.8475 2.98534C11.4547 2.88714 11.0523 3.11147 10.929 3.49657C10.8048 3.88265 11.0012 4.29857 11.3777 4.44877C12.9335 4.94844 14.2267 6.04603 14.9737 7.49787C15.7218 8.95069 15.8624 10.6404 15.3656 12.1971C15.2356 12.6015 15.4589 13.0347 15.8643 13.1647C15.9384 13.1888 16.0164 13.2013 16.0953 13.2022C16.4304 13.2042 16.7288 12.9886 16.8327 12.6699ZM13.8983 11.7303C14.2718 10.5634 14.1669 9.29541 13.6065 8.20549C13.0452 7.11561 12.0748 6.29341 10.9079 5.91986C10.7096 5.84091 10.4872 5.84765 10.2946 5.93911C10.1021 6.02961 9.95572 6.19714 9.89026 6.40029C9.82479 6.60343 9.84694 6.82392 9.95092 7.0107C10.0549 7.19651 10.2311 7.33131 10.4381 7.38329C11.216 7.63264 11.863 8.18048 12.2375 8.90737C12.6111 9.6333 12.6814 10.4786 12.432 11.2575C12.302 11.6619 12.5254 12.0951 12.9298 12.2251C13.3351 12.3551 13.7683 12.1317 13.8983 11.7274L13.8983 11.7303ZM19.7665 13.6106C20.6388 10.8868 20.3923 7.92917 19.0839 5.38755C17.7755 2.84495 15.5101 0.926911 12.7873 0.0546482C12.5899 -0.0242991 12.3675 -0.0175605 12.175 0.0739041C11.9824 0.164406 11.8351 0.331935 11.7706 0.535077C11.7051 0.738224 11.7273 0.958712 11.8312 1.14549C11.9343 1.33131 12.1104 1.4661 12.3175 1.51808C14.6522 2.26617 16.5942 3.91058 17.7157 6.09037C18.8371 8.27017 19.0472 10.8061 18.2991 13.1407C18.1701 13.5451 18.3925 13.9783 18.7978 14.1083C18.872 14.1324 18.95 14.1449 19.0289 14.1458C19.3649 14.1478 19.6644 13.9302 19.7665 13.6106Z" fill="black"/>
</svg>
