<svg width="79" height="91" viewBox="0 0 79 91" fill="none" xmlns="http://www.w3.org/2000/svg">
<path d="M77.4071 13.7592C75.5071 7.45923 70.2071 3.85923 64.2071 1.85923C56.5071 -0.740766 48.4071 0.359234 40.8071 2.65923C40.5071 2.75923 40.2071 2.85923 40.0071 2.95923C32.5071 -0.040766 24.3071 -1.24077 16.7071 1.65923C6.50712 5.55923 -0.99288 16.3592 0.10712 27.3592C0.70712 33.3592 3.70712 38.5592 6.70712 43.6592C9.80712 48.9592 11.6071 54.0592 12.2071 60.0592C12.8071 65.4592 13.0071 70.9592 14.3071 76.2592C15.6071 81.2592 18.5071 87.9592 23.7071 89.8592C29.9071 92.2592 32.9071 85.5592 34.8071 80.9592C37.0071 75.5592 38.4071 69.8592 40.0071 64.1592C40.7071 61.6592 41.4071 59.1592 42.1071 56.6592C42.2071 56.2592 42.5071 55.5592 42.5071 55.1592V55.0592C43.3071 55.8592 44.0071 56.8592 44.5071 57.9592C46.7071 62.3592 46.8071 67.7592 47.5071 72.4592C48.1071 77.0592 48.7071 82.2592 51.5071 86.1592C55.3071 91.5592 60.7071 89.3592 64.1071 84.7592C71.0071 75.3592 68.9071 62.7592 71.0071 51.9592C73.3071 39.2592 81.4071 27.2592 77.4071 13.7592ZM66.5071 46.5592C63.9071 56.3592 65.7071 66.9592 62.3071 76.5592C61.5071 78.8592 60.3071 81.1592 58.5071 82.9592C56.5071 84.9592 55.4071 81.2592 54.8071 79.5592C53.4071 75.4592 53.0071 71.1592 52.3071 66.8592C51.4071 61.3592 48.4071 45.9592 39.7071 48.7592C35.5071 50.1592 34.4071 55.9592 33.3071 59.6592C32.0071 64.4592 30.8071 69.2592 29.3071 74.0592C28.6071 76.0592 28.0071 78.1592 27.0071 80.1592C25.8071 82.4592 24.4071 80.8592 24.2071 80.5592C21.7071 76.7592 21.0071 71.9592 20.5071 67.5592C20.0071 62.6592 19.8071 57.7592 18.7071 52.9592C17.6071 47.9592 15.3071 43.5592 12.7071 39.1592C9.90712 34.3592 6.80712 29.3592 7.50712 23.5592C8.10712 18.5592 11.1071 13.6592 15.2071 10.7592C22.4071 5.55923 31.8071 7.05923 40.2071 10.0592C41.6071 10.6592 46.8071 12.6592 49.5071 13.9592C52.4071 15.3592 54.7071 11.4592 52.0071 9.65923C51.3071 9.25923 50.6071 8.75923 49.9071 8.35923C59.0071 6.85923 70.3071 7.45923 72.2071 17.2592C74.4071 27.3592 69.1071 36.8592 66.5071 46.5592Z" fill="black"/>
</svg>
