<svg width="68" height="114" viewBox="0 0 68 114" fill="none" xmlns="http://www.w3.org/2000/svg">
<path d="M16.9871 0.990528C14.2369 2.29003 12.7253 5.16203 13.0146 8.02898L2.10338 13.1847C0.93821 13.7353 0.440001 15.1261 0.990564 16.2912L12.9528 41.6073C13.5034 42.7725 14.8942 43.2707 16.0593 42.7202L26.6077 37.7359C26.6665 37.9559 28.729 41.2519 27.1873 45.5551C25.9006 49.1469 26.0898 53.0246 27.7197 56.4741L54.1718 112.455C54.7223 113.621 56.1131 114.119 57.2783 113.568L65.717 109.581C66.8821 109.03 67.3804 107.639 66.8298 106.474L42.0294 53.9883C40.9319 51.6658 40.8047 49.0551 41.6709 46.637C42.9576 43.0452 42.7684 39.1675 41.1386 35.7182L26.3067 4.32899C24.6577 0.839164 20.4769 -0.658469 16.9871 0.990528ZM10.1942 24.8459L18.6329 20.8585L20.6266 25.0778L12.1879 29.0653L10.1942 24.8459ZM14.6455 12.4198L16.6392 16.6391L8.20048 20.6266L6.20677 16.4072L14.6455 12.4198ZM16.1753 37.504L14.1816 33.2846L22.6203 29.2972L24.614 33.5165L16.1753 37.504ZM36.9192 37.7119C38.0166 40.0344 38.1439 42.6451 37.2776 45.0632C35.991 48.655 36.1801 52.5327 37.81 55.982L61.6136 106.358L57.3942 108.352L31.9391 54.4804C30.8417 52.1581 30.7144 49.5472 31.5806 47.1291C32.8673 43.5373 32.6781 39.6596 31.0482 36.2101C29.6321 33.2133 19.0836 10.8892 17.868 8.31641C17.3183 7.15313 17.8175 5.75954 18.9808 5.20988C20.1441 4.66021 21.5376 5.15942 22.0873 6.3227L36.9192 37.7119Z" fill="black" fill-opacity="0.2"/>
</svg>
